<mxfile host="app.diagrams.net" agent="Mozilla/5.0 (Windows NT 10.0; Win64; x64; rv:134.0) Gecko/20100101 Firefox/134.0" version="26.0.10">
  <diagram name="Page-1" id="40tswewPP5Z8xJik5HZg">
    <mxGraphModel>
      <root>
        <mxCell id="0" />
        <mxCell id="1" parent="0" />
        <mxCell id="2" value="2️⃣ Azure Function processes PDFs" style="whiteSpace=wrap;strokeWidth=2;" vertex="1" parent="1">
          <mxGeometry x="1422" y="8" width="239" height="124" as="geometry" />
        </mxCell>
        <mxCell id="3" value="1️⃣ User sends PDFs via email" style="whiteSpace=wrap;strokeWidth=2;" vertex="1" parent="1">
          <mxGeometry x="8" y="8" width="1254" height="124" as="geometry" />
        </mxCell>
        <mxCell id="4" value="1️⃣ User" style="whiteSpace=wrap;strokeWidth=2;" vertex="1" parent="1">
          <mxGeometry x="33" y="43" width="119" height="54" as="geometry" />
        </mxCell>
        <mxCell id="5" value="Logic Apps" style="whiteSpace=wrap;strokeWidth=2;" vertex="1" parent="1">
          <mxGeometry x="355" y="43" width="136" height="54" as="geometry" />
        </mxCell>
        <mxCell id="6" value="Extracts PDFs" style="whiteSpace=wrap;strokeWidth=2;" vertex="1" parent="1">
          <mxGeometry x="714" y="43" width="157" height="54" as="geometry" />
        </mxCell>
        <mxCell id="7" value="Azure Function" style="whiteSpace=wrap;strokeWidth=2;" vertex="1" parent="1">
          <mxGeometry x="1069" y="43" width="168" height="54" as="geometry" />
        </mxCell>
        <mxCell id="8" value="Extracts structure" style="whiteSpace=wrap;strokeWidth=2;" vertex="1" parent="1">
          <mxGeometry x="1447" y="43" width="189" height="54" as="geometry" />
        </mxCell>
        <mxCell id="9" value="Sends PDFs via email" style="curved=1;startArrow=none;endArrow=block;exitX=1;exitY=0.5;entryX=0;entryY=0.5;" edge="1" parent="1" source="4" target="5">
          <mxGeometry relative="1" as="geometry">
            <Array as="points" />
          </mxGeometry>
        </mxCell>
        <mxCell id="10" value="Detects new email with attachments" style="curved=1;startArrow=none;endArrow=block;exitX=1;exitY=0.5;entryX=0;entryY=0.5;" edge="1" parent="1" source="5" target="6">
          <mxGeometry relative="1" as="geometry">
            <Array as="points" />
          </mxGeometry>
        </mxCell>
        <mxCell id="11" value="Sends PDFs to Azure Function" style="curved=1;startArrow=none;endArrow=block;exitX=1;exitY=0.5;entryX=0;entryY=0.5;" edge="1" parent="1" source="6" target="7">
          <mxGeometry relative="1" as="geometry">
            <Array as="points" />
          </mxGeometry>
        </mxCell>
        <mxCell id="12" value="Processes PDFs" style="curved=1;startArrow=none;endArrow=block;exitX=1;exitY=0.5;entryX=0;entryY=0.5;" edge="1" parent="1" source="7" target="8">
          <mxGeometry relative="1" as="geometry">
            <Array as="points" />
          </mxGeometry>
        </mxCell>
      </root>
    </mxGraphModel>
  </diagram>
</mxfile>
